<svg width="332" height="236" viewBox="0 0 332 236" fill="none" xmlns="http://www.w3.org/2000/svg">
<g filter="url(#filter0_d_2443_3757)">
<rect x="7" y="5" width="318" height="222" rx="20" fill="white" shape-rendering="crispEdges"/>
<path d="M231.416 129.093C231.416 134.471 230.875 139.723 229.841 144.797L152.907 207.601H152.889C109.536 207.591 74.3979 172.446 74.3979 129.093C74.3979 117.052 77.1102 105.645 81.9551 95.4469L152.889 71.5769L189.079 59.3967V59.4003C214.233 72.4786 231.416 98.7818 231.416 129.093Z" fill="#09A39F"/>
<path d="M231.416 129.093C231.416 134.471 230.876 139.723 229.842 144.797L152.908 207.601H152.89V71.5769L189.079 59.3967V59.4003C214.234 72.4786 231.416 98.7818 231.416 129.093Z" fill="#1DC7E8"/>
<path d="M229.842 144.797C222.571 180.633 190.886 207.601 152.907 207.601L168.598 185.17V162.738L152.907 144.797H119.262L105.783 128.677V106.661L81.9556 95.4467C94.5508 68.9253 121.577 50.5907 152.889 50.5835H152.907C165.953 50.5835 178.255 53.7645 189.079 59.3966V59.4001L168.598 81.982V113.388L186.553 129.092H208.985L229.842 144.797Z" fill="#5FF4FF"/>
<path d="M229.842 144.797C222.571 180.633 190.886 207.601 152.908 207.601L168.598 185.17V162.738L152.908 144.797H152.89V50.5835H152.908C165.954 50.5835 178.255 53.7645 189.079 59.3966V59.4001L168.598 81.982V113.388L186.553 129.092H208.985L229.842 144.797Z" fill="#0BD972"/>
<path d="M245.282 116.397V42.0856C245.282 32.3315 237.349 24.3987 227.595 24.3987C222.872 24.3987 218.431 26.2379 215.093 29.5763C211.751 32.9148 209.908 37.3553 209.908 42.0856V116.397C202.24 122.011 197.592 131.036 197.592 140.639C197.592 157.181 211.049 170.643 227.595 170.643C244.14 170.643 257.601 157.181 257.601 140.639C257.601 131.036 252.95 122.011 245.282 116.397Z" fill="#FCEEF1"/>
<path d="M257.602 140.639C257.602 157.181 244.141 170.643 227.595 170.643V24.3987C237.349 24.3987 245.282 32.3315 245.282 42.0856V116.397C252.95 122.011 257.602 131.036 257.602 140.639Z" fill="#FCEEF1"/>
<path d="M246.866 140.64C246.866 151.264 238.221 159.909 227.594 159.909C216.971 159.909 208.326 151.264 208.326 140.64C208.326 133.781 212.018 127.383 217.962 123.941L220.642 122.391V54.406H234.547V122.391L237.227 123.941C243.174 127.383 246.866 133.781 246.866 140.64Z" fill="#D1052C"/>
<path d="M246.867 140.64C246.867 151.264 238.222 159.909 227.595 159.909V54.406H234.548V122.391L237.228 123.941C243.175 127.383 246.867 133.781 246.867 140.64Z" fill="#D1052C"/>
<path d="M222.228 135.268H232.963V146.003H222.228V135.268Z" fill="#FCEEF1"/>
<path d="M227.595 135.268H232.962V146.003H227.595V135.268Z" fill="#5FF4FF"/>
</g>
<defs>
<filter id="filter0_d_2443_3757" x="0" y="0" width="332" height="236" filterUnits="userSpaceOnUse" color-interpolation-filters="sRGB">
<feFlood flood-opacity="0" result="BackgroundImageFix"/>
<feColorMatrix in="SourceAlpha" type="matrix" values="0 0 0 0 0 0 0 0 0 0 0 0 0 0 0 0 0 0 127 0" result="hardAlpha"/>
<feMorphology radius="2" operator="dilate" in="SourceAlpha" result="effect1_dropShadow_2443_3757"/>
<feOffset dy="2"/>
<feGaussianBlur stdDeviation="2.5"/>
<feComposite in2="hardAlpha" operator="out"/>
<feColorMatrix type="matrix" values="0 0 0 0 0 0 0 0 0 0 0 0 0 0 0 0 0 0 0.08 0"/>
<feBlend mode="normal" in2="BackgroundImageFix" result="effect1_dropShadow_2443_3757"/>
<feBlend mode="normal" in="SourceGraphic" in2="effect1_dropShadow_2443_3757" result="shape"/>
</filter>
</defs>
</svg>
